# xmcd
#
# Track frame offsets: 
#        182
#        12435
#        25227
#        51660
#        66852
#        84290
#        104480
#        117495
#        131585
#        158670
#        172997
#        187380
#        214942
#        230347
#        242012
#        254422
#
# Disc length: 3519 seconds
#
# Revision: 0
# Processed by: cddbd v1.5.1PL0 Copyright (c) Steve Scherf et al.
# Submitted via: ExactAudioCopy v0.95a5
#
DISCID=e50dbd10
DTITLE=Bobby Womack - Bobby Womack Gold
DYEAR=1991
DGENRE=Soul
TTITLE0=And I Love Her
TTITLE1=Got To Get You Back
TTITLE2=Simple Man
TTITLE3=Ruby Dean
TTITLE4=Thing Called Love
TTITLE5=Fire And Rain
TTITLE6=If You Don't Want My Love, Give It Back
TTITLE7=Sweet Caroline
TTITLE8=California Dreamin'
TTITLE9=Something
TTITLE10=Everybody's Talkin'
TTITLE11=The Preacher
TTITLE12=I Don't Wanna Be Hurt By Ya Love Againe
TTITLE13=You'Re Messing Up A Good Thing
TTITLE14=There'S One Thing That Beats Falling
TTITLE15=Don'T Let Me Down
EXTD=
EXTT0=
EXTT1=
EXTT2=
EXTT3=
EXTT4=
EXTT5=
EXTT6=
EXTT7=
EXTT8=
EXTT9=
EXTT10=
EXTT11=
EXTT12=
EXTT13=
EXTT14=
EXTT15=
PLAYORDER=
